<svg width="69" height="29" viewBox="0 0 69 29" fill="none" xmlns="http://www.w3.org/2000/svg">
<path d="M20.6371 13.7602L21.9341 7.05672V13.7602H20.6371ZM20.8875 0.00646677L15.892 23.6999L10.8001 24.7466L16.0717 0.00646677H1.04661L-1.52588e-05 2.88949L12.4375 2.7675L6.3953 28.5157L18.2485 25.8767L20.1362 16.3608H21.9341L22.1588 25.0034L24.8428 24.4063L23.8412 4.57764e-05H20.8939L20.8875 0.00646677Z" fill="#121212"/>
<path d="M32.182 4.16083V12.1678C32.182 13.0475 32.1884 13.7602 30.9171 13.7602H29.9732V2.56843H30.9171C32.3554 2.56843 32.182 3.28116 32.182 4.16083ZM31.3216 0.00644684H27.2828L27.2956 23.8476L29.9732 23.2505L29.9925 16.3928H31.3152C34.8467 16.3928 34.8275 14.0235 34.8275 11.1019V5.29735C34.8275 2.38222 35.3091 0.00644684 31.3152 0.00644684H31.3216Z" fill="#121212"/>
<path d="M50.713 7.52544L48.1703 0.00644684H45.9037V19.6804L48.5748 19.0832V9.471L50.0966 13.7666H51.5221L53.1081 9.471L53.0439 18.0816L55.5159 17.5229V0.00644684H53.3521L50.7066 7.52544H50.713Z" fill="#121212"/>
<path d="M62.1232 9.46458L59.1695 0.00644684H57.5129V17.0735L59.9464 16.5277L59.9336 9.50952L62.0782 16.0461L64.5246 15.5003V0.00644684H62.1103L62.1296 9.46458H62.1232Z" fill="#121212"/>
<path d="M66.5151 0.00644684V15.038L69 14.4794V0.00644684H66.5151Z" fill="#121212"/>
<path d="M37.0492 20.8105C37.0106 20.7527 36.9721 20.682 36.94 20.6178C36.9721 20.6885 37.0042 20.7527 37.0492 20.8105Z" fill="#121212"/>
<path d="M37.6335 21.2792C37.5628 21.2471 37.4986 21.215 37.4344 21.1765C37.4986 21.215 37.5628 21.2535 37.6335 21.2792Z" fill="#121212"/>
<path d="M37.2225 21.0095C37.1647 20.9581 37.1198 20.8939 37.0748 20.8361C37.1198 20.9003 37.1711 20.9581 37.2225 21.0095Z" fill="#121212"/>
<path d="M38.16 21.3948C38.0765 21.3948 37.9995 21.3884 37.9224 21.3691C37.9995 21.382 38.0765 21.3948 38.16 21.3948Z" fill="#121212"/>
<path d="M37.8839 21.3627C37.8068 21.3499 37.7362 21.3242 37.672 21.2985C37.7426 21.3242 37.8132 21.3499 37.8839 21.3627Z" fill="#121212"/>
<path d="M37.4087 21.1572C37.3445 21.1122 37.2867 21.0673 37.2289 21.0159C37.2867 21.0673 37.3445 21.1187 37.4087 21.1572Z" fill="#121212"/>
<path d="M36.8244 1.32273C36.8244 0.866842 37.062 0.46874 37.4151 0.231163C37.0556 0.46874 36.8244 0.866842 36.8244 1.32273V20.072C36.8244 20.1555 36.8372 20.239 36.8501 20.3225C36.8372 20.2454 36.8244 20.1619 36.8244 20.072V1.32273Z" fill="#121212"/>
<path d="M37.6714 21.2983C37.6714 21.2983 37.6461 21.2856 37.6335 21.2856C37.6461 21.2856 37.6588 21.2983 37.6714 21.2983Z" fill="#121212"/>
<path d="M43.3353 0.237584C43.6949 0.475161 43.926 0.873263 43.926 1.32915V19.0832C43.926 19.3914 43.8169 19.6739 43.6371 19.8987C43.8233 19.6739 43.926 19.385 43.926 19.0832V1.32273C43.926 0.866842 43.6885 0.46874 43.3353 0.231163V0.237584Z" fill="#121212"/>
<path d="M42.8858 20.361L38.4682 21.3627C38.4168 21.3755 38.3654 21.3819 38.3141 21.3884C38.3654 21.3884 38.4168 21.3755 38.4682 21.3627L42.8858 20.361C43.1876 20.2904 43.4509 20.1234 43.6371 19.8987C43.4509 20.1234 43.194 20.2904 42.8858 20.361Z" fill="#121212"/>
<path d="M37.434 21.1762C37.434 21.1762 37.4151 21.1635 37.4087 21.1572C37.4151 21.1572 37.4277 21.1698 37.434 21.1762Z" fill="#121212"/>
<path d="M37.0746 20.8358C37.0746 20.8358 37.0619 20.8168 37.0556 20.8105C37.0556 20.8168 37.0682 20.8295 37.0746 20.8358Z" fill="#121212"/>
<path d="M36.9461 20.6173C36.9461 20.6173 36.9335 20.592 36.9272 20.5793C36.9272 20.592 36.9398 20.6047 36.9461 20.6173Z" fill="#121212"/>
<path d="M41.2998 18.0816L39.457 18.4989V2.58127H41.2998V18.0751V18.0816ZM43.926 1.32918C43.926 0.873285 43.6884 0.475183 43.3353 0.237606C43.1234 0.0963438 42.8601 0.0128708 42.584 0.0128708H38.1664C37.8903 0.0128708 37.627 0.0963438 37.4151 0.237606C37.0556 0.475183 36.8244 0.873285 36.8244 1.32918V20.0785C36.8244 20.162 36.8372 20.2454 36.8501 20.3289C36.8501 20.3418 36.8501 20.3546 36.8501 20.361C36.8693 20.4381 36.8886 20.5087 36.9207 20.5793C36.9207 20.5922 36.9336 20.605 36.94 20.6179C36.9721 20.6885 37.0106 20.7527 37.0491 20.8105C37.0556 20.8169 37.062 20.8297 37.0684 20.8362C37.1133 20.9004 37.1647 20.9582 37.2161 21.0095C37.2739 21.0609 37.3317 21.1123 37.3959 21.1508C37.4023 21.1508 37.4151 21.1636 37.4216 21.1701C37.4858 21.2086 37.55 21.2471 37.6206 21.2728C37.6334 21.2728 37.6463 21.2856 37.6591 21.2856C37.7298 21.3113 37.8004 21.337 37.8774 21.3498C37.8903 21.3498 37.9031 21.3498 37.916 21.3498C37.993 21.3627 38.0765 21.3755 38.1535 21.3755C38.1857 21.3755 38.2178 21.3755 38.2563 21.3755C38.2755 21.3755 38.2884 21.3755 38.3077 21.3755C38.359 21.3755 38.4104 21.3627 38.4618 21.3498L42.8794 20.3482C43.1812 20.2775 43.4444 20.1106 43.6307 19.8859C43.8169 19.6611 43.9196 19.3722 43.9196 19.0704V1.32918H43.926Z" fill="#121212"/>
</svg>
