<svg width="37" height="36" viewBox="0 0 37 36" fill="none" xmlns="http://www.w3.org/2000/svg">
<path d="M10.43 16.185C12.59 20.43 16.07 23.895 20.315 26.07L23.615 22.77C24.02 22.365 24.62 22.23 25.145 22.41C26.825 22.965 28.64 23.265 30.5 23.265C31.325 23.265 32 23.94 32 24.765V30C32 30.825 31.325 31.5 30.5 31.5C16.415 31.5 5 20.085 5 6C5 5.175 5.675 4.5 6.5 4.5H11.75C12.575 4.5 13.25 5.175 13.25 6C13.25 7.875 13.55 9.675 14.105 11.355C14.27 11.88 14.15 12.465 13.73 12.885L10.43 16.185Z" fill="black"/>
</svg>
