<svg width="48" height="48" viewBox="0 0 48 48" fill="none" xmlns="http://www.w3.org/2000/svg">
<g clip-path="url(#clip0_1225_29)">
<path d="M47.1289 34.086L46.2263 33.6348L25.8866 43.8046C24.7192 44.396 23.2807 44.396 22.1134 43.8046L1.77366 33.6348L0.871124 34.086C0.637501 34.2027 0.441012 34.3822 0.303683 34.6044C0.166354 34.8266 0.0936127 35.0826 0.0936127 35.3437C0.0936127 35.6049 0.166354 35.8609 0.303683 36.0831C0.441012 36.3052 0.637501 36.4847 0.871124 36.6015L23.3711 47.8515C23.5664 47.9491 23.7817 48 24 48C24.2183 48 24.4336 47.9491 24.6289 47.8515L47.1289 36.6015C47.3625 36.4847 47.559 36.3052 47.6963 36.0831C47.8336 35.8609 47.9064 35.6049 47.9064 35.3437C47.9064 35.0826 47.8336 34.8266 47.6963 34.6044C47.559 34.3822 47.3625 34.2027 47.1289 34.086Z" fill="black"/>
<path d="M47.1289 27.5235L46.2263 27.0723L25.8866 37.2421C24.7192 37.8335 23.2807 37.8335 22.1134 37.2421L1.77366 27.0723L0.871124 27.5235C0.637501 27.6403 0.441012 27.8198 0.303683 28.0419C0.166354 28.2641 0.0936127 28.5201 0.0936127 28.7812C0.0936127 29.0424 0.166354 29.2984 0.303683 29.5206C0.441012 29.7427 0.637501 29.9222 0.871124 30.039L23.3711 41.289C23.5664 41.3867 23.7817 41.4375 24 41.4375C24.2183 41.4375 24.4336 41.3867 24.6289 41.289L47.1289 30.039C47.3625 29.9222 47.559 29.7427 47.6963 29.5206C47.8336 29.2984 47.9064 29.0424 47.9064 28.7812C47.9064 28.5201 47.8336 28.2641 47.6963 28.0419C47.559 27.8198 47.3625 27.6403 47.1289 27.5235ZM11.6332 16.5487L14.4457 21.4201C14.834 22.0927 15.694 22.3232 16.3667 21.9348L17.5247 21.2662C18.2269 21.7986 18.9811 22.2373 19.7812 22.5787V23.9062C19.7812 24.6829 20.4109 25.3125 21.1875 25.3125H26.8125C27.5891 25.3125 28.2188 24.6829 28.2188 23.9062V22.5787C29.0189 22.2373 29.7731 21.7986 30.4753 21.2662L31.6333 21.9348C32.3059 22.3231 33.1659 22.0927 33.5542 21.4201L36.3667 16.5487C36.7551 15.8761 36.5246 15.016 35.8521 14.6277L34.6989 13.9619C34.7537 13.524 34.7812 13.0875 34.7812 12.6562C34.7812 12.225 34.7537 11.7885 34.699 11.3506L35.8522 10.6848C36.5247 10.2965 36.7552 9.43641 36.3668 8.76384L33.5543 3.89241C33.166 3.21984 32.306 2.98931 31.6334 3.37772L30.4753 4.04625C29.7799 3.51773 29.022 3.07691 28.2188 2.73375V1.40625C28.2188 0.629625 27.5891 0 26.8125 0H21.1875C20.4109 0 19.7812 0.629625 19.7812 1.40625V2.73375C18.978 3.07691 18.2201 3.51773 17.5247 4.04625L16.3667 3.37762C15.6941 2.98931 14.8341 3.21975 14.4457 3.89231L11.6332 8.76375C11.2449 9.43631 11.4754 10.2964 12.1479 10.6847L13.3011 11.3505C13.2463 11.7885 13.2187 12.225 13.2187 12.6562C13.2187 13.0875 13.2463 13.524 13.301 13.9619L12.1478 14.6277C11.4753 15.016 11.2448 15.8761 11.6332 16.5487ZM24 8.4375C26.3262 8.4375 28.2188 10.33 28.2188 12.6562C28.2188 14.9825 26.3262 16.875 24 16.875C21.6738 16.875 19.7812 14.9825 19.7812 12.6562C19.7812 10.33 21.6738 8.4375 24 8.4375Z" fill="black"/>
<path d="M0.871124 23.4766L23.3711 34.7266C23.5664 34.8242 23.7817 34.8751 24 34.8751C24.2183 34.8751 24.4336 34.8242 24.6289 34.7266L47.1289 23.4766C47.3625 23.3598 47.559 23.1803 47.6963 22.9582C47.8336 22.736 47.9064 22.48 47.9064 22.2188C47.9064 21.9576 47.8336 21.7016 47.6963 21.4795C47.559 21.2573 47.3625 21.0778 47.1289 20.9611L39.2063 16.9998C39.1116 17.3335 38.976 17.6543 38.8027 17.9548L35.9901 22.8263C35.2389 24.1275 33.8384 24.936 32.3352 24.936H32.3351C31.8656 24.9358 31.3994 24.8571 30.9558 24.7034C30.582 26.6498 28.8663 28.1251 26.8125 28.1251H21.1875C19.1337 28.1251 17.418 26.6498 17.0443 24.7034C16.6007 24.8572 16.1344 24.9358 15.6649 24.936C14.1616 24.936 12.7611 24.1276 12.0098 22.8261L9.19744 17.9551C9.02371 17.6548 8.88744 17.3343 8.79169 17.0009L0.871124 20.9611C0.637501 21.0778 0.441012 21.2573 0.303683 21.4795C0.166354 21.7016 0.0936127 21.9576 0.0936127 22.2188C0.0936127 22.48 0.166354 22.736 0.303683 22.9582C0.441012 23.1803 0.637501 23.3598 0.871124 23.4766Z" fill="black"/>
</g>
<defs>
<clipPath id="clip0_1225_29">
<rect width="48" height="48" fill="white"/>
</clipPath>
</defs>
</svg>
