<svg width="48" height="48" viewBox="0 0 48 48" fill="none" xmlns="http://www.w3.org/2000/svg">
<g clip-path="url(#clip0_1225_50)">
<path d="M10.7125 9.39738C10.7125 9.69764 10.4691 9.94101 10.1689 9.94101C9.86871 9.94101 9.62528 9.69764 9.62528 9.39738V8.77979H6.70479V10.4441C7.43756 10.6755 7.9704 11.3617 7.9704 12.1699C7.9704 12.9782 7.43761 13.6644 6.70479 13.8958V15.5601H9.62528V14.9469C9.62528 14.6467 9.86871 14.4033 10.1689 14.4033C10.4691 14.4033 10.7125 14.6467 10.7125 14.9469V15.5601H21.0005V13.8957C20.976 13.888 20.9517 13.8797 20.9276 13.8709C20.9198 13.8681 20.9121 13.865 20.9043 13.862C20.8868 13.8553 20.8693 13.8485 20.852 13.8414C20.8425 13.8374 20.8331 13.8333 20.8236 13.8292C20.808 13.8224 20.7925 13.8153 20.777 13.8081C20.7677 13.8037 20.7584 13.7993 20.7491 13.7947C20.7327 13.7867 20.7165 13.7783 20.7004 13.7697C20.6927 13.7657 20.685 13.7618 20.6774 13.7577C20.6545 13.7451 20.6319 13.7321 20.6096 13.7186C20.6035 13.7149 20.5976 13.711 20.5915 13.7072C20.575 13.697 20.5586 13.6865 20.5423 13.6757C20.5338 13.6699 20.5254 13.6641 20.5169 13.6582C20.5033 13.6487 20.4897 13.6392 20.4763 13.6294C20.4678 13.623 20.4592 13.6167 20.4507 13.6103C20.4372 13.5999 20.4238 13.5894 20.4106 13.5787C20.4031 13.5726 20.3954 13.5667 20.388 13.5605C20.3686 13.5443 20.3494 13.5278 20.3307 13.5108C20.327 13.5075 20.3235 13.504 20.3198 13.5006C20.3036 13.4856 20.2876 13.4704 20.2718 13.4549C20.2648 13.4479 20.258 13.4408 20.251 13.4337C20.2201 13.4021 20.1903 13.3694 20.1618 13.3356C20.1554 13.3279 20.1489 13.3204 20.1426 13.3127C20.1295 13.2966 20.1167 13.2803 20.1042 13.2637C20.1006 13.2591 20.0969 13.2546 20.0934 13.2499C20.0779 13.2291 20.0629 13.2079 20.0482 13.1864C20.0431 13.1789 20.0382 13.1712 20.0333 13.1637C20.0235 13.1489 20.0139 13.1339 20.0045 13.1189C19.9901 13.0956 19.9763 13.072 19.963 13.0481C19.9581 13.0393 19.9532 13.0306 19.9485 13.0217C19.9393 13.0045 19.9304 12.9871 19.9217 12.9695C19.9185 12.963 19.9151 12.9566 19.912 12.9501C19.9005 12.9262 19.8896 12.902 19.8792 12.8776C19.8762 12.8707 19.8736 12.8637 19.8707 12.8567C19.8632 12.8387 19.856 12.8205 19.8492 12.8022C19.8457 12.7929 19.8424 12.7836 19.8391 12.7743C19.8331 12.7576 19.8274 12.7407 19.822 12.7238C19.8189 12.7144 19.8159 12.7049 19.813 12.6953C19.8074 12.6769 19.8021 12.6582 19.7971 12.6396C19.795 12.6318 19.7927 12.624 19.7907 12.6161C19.784 12.5897 19.7778 12.563 19.7722 12.5363C19.7712 12.5315 19.7705 12.5266 19.7695 12.5218C19.7651 12.4995 19.7611 12.477 19.7575 12.4545C19.756 12.4453 19.7548 12.436 19.7535 12.4267C19.7494 12.3981 19.746 12.3693 19.7432 12.3405C19.7414 12.3211 19.7399 12.3016 19.7387 12.282C19.7382 12.2732 19.7375 12.2644 19.7371 12.2554C19.7358 12.2271 19.7349 12.1987 19.7349 12.17C19.7349 12.1414 19.7358 12.1129 19.7371 12.0846C19.7375 12.0757 19.7382 12.0669 19.7387 12.058C19.7406 12.0285 19.7431 11.999 19.7463 11.9696C19.7484 11.9507 19.7508 11.932 19.7535 11.9134C19.7548 11.9041 19.756 11.8948 19.7575 11.8856C19.7611 11.863 19.7651 11.8406 19.7695 11.8183C19.7705 11.8134 19.7712 11.8086 19.7722 11.8038C19.7778 11.7769 19.7839 11.7503 19.7907 11.7239C19.7927 11.7161 19.795 11.7084 19.7971 11.7005C19.8092 11.6551 19.8233 11.6101 19.8391 11.5658C19.8424 11.5565 19.8456 11.5472 19.8491 11.538C19.856 11.5196 19.8632 11.5014 19.8707 11.4833C19.8736 11.4764 19.8762 11.4694 19.8791 11.4625C19.8895 11.4381 19.9005 11.4139 19.912 11.39C19.9151 11.3835 19.9184 11.3772 19.9216 11.3708C19.9303 11.3532 19.9392 11.3356 19.9485 11.3183C19.9532 11.3096 19.9581 11.3009 19.9629 11.2922C19.9762 11.2683 19.9901 11.2447 20.0044 11.2214C20.0138 11.2062 20.0236 11.1911 20.0334 11.1762C20.0383 11.1688 20.0432 11.1612 20.0482 11.1539C20.0629 11.1323 20.0779 11.111 20.0935 11.0901C20.0968 11.0857 20.1002 11.0815 20.1035 11.0772C20.1163 11.0603 20.1294 11.0437 20.1427 11.0274C20.1489 11.0198 20.1552 11.0124 20.1615 11.005C20.1792 10.984 20.1973 10.9635 20.2159 10.9433C20.2275 10.9307 20.2394 10.9183 20.2514 10.9061C20.2581 10.8992 20.2647 10.8923 20.2715 10.8855C20.2877 10.8695 20.3043 10.8537 20.3211 10.8383C20.3238 10.8358 20.3264 10.8332 20.3291 10.8307C20.3484 10.8132 20.3682 10.7962 20.3882 10.7795C20.3953 10.7736 20.4025 10.7679 20.4097 10.7622C20.4446 10.7339 20.4806 10.707 20.5176 10.6815C20.5257 10.6759 20.5337 10.6703 20.5418 10.6649C20.5587 10.6536 20.5758 10.6427 20.5931 10.632C20.5985 10.6286 20.6038 10.6251 20.6093 10.6218C20.6318 10.6082 20.6547 10.595 20.6778 10.5824C20.6848 10.5786 20.6919 10.575 20.6989 10.5712C20.7157 10.5623 20.7326 10.5536 20.7497 10.5452C20.8008 10.5202 20.853 10.4976 20.9062 10.4775C20.9131 10.4749 20.9201 10.4721 20.9271 10.4695C20.9513 10.4607 20.9757 10.4523 21.0004 10.4445V8.78014H10.7125V9.39738ZM10.7125 13.4356C10.7125 13.7358 10.4691 13.9792 10.1689 13.9792C9.86871 13.9792 9.62528 13.7358 9.62528 13.4356V12.9942C9.62528 12.694 9.86871 12.4505 10.1689 12.4505C10.4691 12.4505 10.7125 12.694 10.7125 12.9942V13.4356ZM10.7125 11.3458C10.7125 11.6461 10.4691 11.8894 10.1689 11.8894C9.86871 11.8894 9.62528 11.6461 9.62528 11.3458V10.9044C9.62528 10.6041 9.86871 10.3607 10.1689 10.3607C10.4691 10.3607 10.7125 10.6041 10.7125 10.9044V11.3458Z" fill="black"/>
<path d="M5.61742 16.1038V13.4356C5.61742 13.1354 5.86079 12.892 6.16105 12.892C6.55913 12.892 6.88299 12.5681 6.88299 12.17C6.88299 11.7719 6.55913 11.448 6.16105 11.448C5.86079 11.448 5.61742 11.2047 5.61742 10.9044V8.2362C5.61742 7.93595 5.86079 7.69258 6.16105 7.69258H16.5839V0.742432C16.5839 -0.0309311 15.9547 -0.660156 15.1813 -0.660156H13.3481V0.0128716C13.3481 1.0507 12.5038 1.89498 11.466 1.89498H6.99285C5.95506 1.89498 5.11079 1.0507 5.11079 0.0128716V-0.660156H3.27759C2.50417 -0.660156 1.875 -0.0309311 1.875 0.742432V23.5974C1.875 24.3708 2.50417 25 3.27759 25H15.1813C15.9547 25 16.5839 24.3708 16.5839 23.5974V16.6474H6.1611C5.86084 16.6474 5.61742 16.404 5.61742 16.1038ZM8.29004 23.2169H10.1689C10.4691 23.2169 10.7125 23.4603 10.7125 23.7605C10.7125 24.0607 10.4691 24.3041 10.1689 24.3041H8.29004C7.98978 24.3041 7.74641 24.0607 7.74641 23.7605C7.74636 23.4603 7.98978 23.2169 8.29004 23.2169Z" fill="black"/>
<path d="M6.99285 0.807685H11.466C11.9043 0.807685 12.2608 0.451149 12.2608 0.0128714V-0.660156H6.19809V0.0128714C6.19809 0.451149 6.55458 0.807685 6.99285 0.807685Z" fill="black"/>
<path d="M3 43L43 5" stroke="black" stroke-width="2"/>
<path d="M28.8661 34.5302H32.8249V37.8292H28.8661V34.5302ZM48 43.4374V44.757C47.9965 45.3684 47.7521 45.9537 47.3198 46.386C46.8875 46.8184 46.3021 47.0628 45.6907 47.0662H24.5775C23.9661 47.0628 23.3807 46.8184 22.9484 46.386C22.5161 45.9537 22.2717 45.3684 22.2682 44.757V43.4374C22.2678 43.0022 22.3918 42.576 22.6256 42.2089C22.8594 41.8419 23.1933 41.5493 23.5878 41.3657V31.5612C23.5913 30.9498 23.8357 30.3645 24.268 29.9321C24.7003 29.4998 25.2857 29.2554 25.8971 29.2519H39.4227V27.2726H37.1135C36.676 27.2726 36.2565 27.0988 35.9471 26.7895C35.6378 26.4801 35.464 26.0606 35.464 25.6231V22.9839C35.464 22.5465 35.6378 22.1269 35.9471 21.8176C36.2565 21.5083 36.676 21.3345 37.1135 21.3345H43.7114C44.1488 21.3345 44.5684 21.5083 44.8777 21.8176C45.1871 22.1269 45.3608 22.5465 45.3608 22.9839V25.6231C45.3608 26.0606 45.1871 26.4801 44.8777 26.7895C44.5684 27.0988 44.1488 27.2726 43.7114 27.2726H41.4021V29.2519H44.3712C44.9825 29.2554 45.5679 29.4998 46.0002 29.9321C46.4325 30.3645 46.677 30.9498 46.6804 31.5612V41.3657C47.075 41.5493 47.4088 41.8419 47.6426 42.2089C47.8764 42.576 48.0004 43.0022 48 43.4374ZM34.8042 34.2004C34.8042 33.7629 34.6304 33.3433 34.3211 33.034C34.0118 32.7247 33.5922 32.5509 33.1547 32.5509H28.5362C28.0988 32.5509 27.6792 32.7247 27.3699 33.034C27.0605 33.3433 26.8868 33.7629 26.8868 34.2004V38.1591C26.8868 38.5966 27.0605 39.0161 27.3699 39.3254C27.6792 39.6348 28.0988 39.8086 28.5362 39.8086H33.1547C33.5922 39.8086 34.0118 39.6348 34.3211 39.3254C34.6304 39.0161 34.8042 38.5966 34.8042 38.1591V34.2004ZM39.4227 38.1591C39.4193 37.8977 39.314 37.6479 39.1291 37.4631C38.9442 37.2782 38.6945 37.1728 38.4331 37.1694H37.1135C36.851 37.1694 36.5993 37.2737 36.4137 37.4593C36.2281 37.6449 36.1238 37.8966 36.1238 38.1591C36.1238 38.4216 36.2281 38.6733 36.4137 38.8589C36.5993 39.0445 36.851 39.1488 37.1135 39.1488H38.4331C38.6945 39.1454 38.9442 39.04 39.1291 38.8551C39.314 38.6703 39.4193 38.4205 39.4227 38.1591ZM39.4227 34.2004C39.4193 33.9389 39.314 33.6892 39.1291 33.5043C38.9442 33.3195 38.6945 33.2141 38.4331 33.2107H37.1135C36.851 33.2107 36.5993 33.3149 36.4137 33.5005C36.2281 33.6861 36.1238 33.9379 36.1238 34.2004C36.1238 34.4628 36.2281 34.7146 36.4137 34.9002C36.5993 35.0858 36.851 35.19 37.1135 35.19H38.4331C38.6945 35.1866 38.9442 35.0813 39.1291 34.8964C39.314 34.7115 39.4193 34.4618 39.4227 34.2004ZM43.3815 38.1591C43.3781 37.8977 43.2727 37.6479 43.0878 37.4631C42.903 37.2782 42.6532 37.1728 42.3918 37.1694H41.0722C40.8097 37.1694 40.558 37.2737 40.3724 37.4593C40.1868 37.6449 40.0825 37.8966 40.0825 38.1591C40.0825 38.4216 40.1868 38.6733 40.3724 38.8589C40.558 39.0445 40.8097 39.1488 41.0722 39.1488H42.3918C42.6532 39.1454 42.903 39.04 43.0878 38.8551C43.2727 38.6703 43.3781 38.4205 43.3815 38.1591ZM43.3815 34.2004C43.3781 33.9389 43.2727 33.6892 43.0878 33.5043C42.903 33.3195 42.6532 33.2141 42.3918 33.2107H41.0722C40.8097 33.2107 40.558 33.3149 40.3724 33.5005C40.1868 33.6861 40.0825 33.9379 40.0825 34.2004C40.0825 34.4628 40.1868 34.7146 40.3724 34.9002C40.558 35.0858 40.8097 35.19 41.0722 35.19H42.3918C42.6532 35.1866 42.903 35.0813 43.0878 34.8964C43.2727 34.7115 43.3781 34.4618 43.3815 34.2004Z" fill="black"/>
</g>
<defs>
<clipPath id="clip0_1225_50">
<rect width="48" height="48" fill="white"/>
</clipPath>
</defs>
</svg>
