<svg width="48" height="48" viewBox="0 0 48 48" fill="none" xmlns="http://www.w3.org/2000/svg">
<path fill-rule="evenodd" clip-rule="evenodd" d="M19.4485 33.4386H3.1633C2.20019 33.4386 1.41177 32.6502 1.41177 31.6893V8.77027H41.633V21.9772C41.4139 21.9735 41.1966 22.0178 40.9963 22.1069L39.6112 22.7228C38.9227 22.3581 38.2013 22.0591 37.4566 21.8298L36.9127 20.4143C36.8035 20.1301 36.6107 19.8857 36.3597 19.7133C36.1088 19.5409 35.8115 19.4486 35.507 19.4486H32.0391C31.735 19.4486 31.438 19.5407 31.1872 19.7127C30.9365 19.8847 30.7436 20.1286 30.6342 20.4123L30.0873 21.8295C29.3422 22.0589 28.6204 22.358 27.9314 22.7228L26.5463 22.1069C26.2681 21.9832 25.959 21.9468 25.6597 22.0023C25.3604 22.0579 25.0849 22.2028 24.8696 22.4181L22.418 24.8697C22.2027 25.085 22.0578 25.3605 22.0022 25.6598C21.9467 25.9591 21.9831 26.2682 22.1068 26.5464L22.7227 27.9315C22.3575 28.6213 22.0578 29.3438 21.8275 30.0896L20.4135 30.6338C20.1294 30.7431 19.8852 30.9359 19.713 31.1868C19.5407 31.4377 19.4485 31.7348 19.4485 32.0392V33.4386ZM18.5222 10.476H5.91445C5.78964 10.476 5.66995 10.5255 5.58169 10.6138C5.49344 10.702 5.44386 10.8217 5.44386 10.9465V13.1488C6.80763 13.1488 7.91473 14.2559 7.91473 15.6196C7.91473 16.9833 6.80763 18.0904 5.44386 18.0904V20.2926C5.44386 20.4174 5.49344 20.5371 5.58169 20.6254C5.66995 20.7136 5.78964 20.7632 5.91445 20.7632H18.5352C18.5263 20.7166 18.5219 20.6692 18.5219 20.6217V19.778C18.5219 19.3625 18.8593 19.025 19.2748 19.025C19.6904 19.025 20.0278 19.3625 20.0278 19.778V20.6217C20.0278 20.67 20.0232 20.7174 20.0145 20.7632H25.6167C25.7415 20.7632 25.8612 20.7136 25.9494 20.6254C26.0377 20.5371 26.0873 20.4174 26.0873 20.2926V18.0904C24.7236 18.0904 23.6165 16.9833 23.6165 15.6196C23.6165 14.2559 24.7236 13.1488 26.0873 13.1488V10.9465C26.0873 10.8217 26.0377 10.702 25.9494 10.6138C25.8612 10.5255 25.7415 10.476 25.6167 10.476H20.0275C20.0277 10.4832 20.0278 10.4905 20.0278 10.4978V11.3414C20.0278 11.757 19.6904 12.0943 19.2748 12.0943C18.8593 12.0943 18.5219 11.757 18.5219 11.3414V10.4978C18.5219 10.4905 18.522 10.4832 18.5222 10.476ZM18.5219 16.4033C18.5219 15.9878 18.8593 15.6504 19.2748 15.6504C19.6904 15.6504 20.0278 15.9878 20.0278 16.4033V18.0906C20.0278 18.5063 19.6904 18.8436 19.2748 18.8436C18.8593 18.8436 18.5219 18.5063 18.5219 18.0906V16.4033ZM18.5219 13.0287C18.5219 12.6132 18.8593 12.2758 19.2748 12.2758C19.6904 12.2758 20.0278 12.6132 20.0278 13.0287V14.7161C20.0278 15.1316 19.6904 15.469 19.2748 15.469C18.8593 15.469 18.5219 15.1316 18.5219 14.7161V13.0287ZM10.3404 15.8521C10.1993 15.7108 10.12 15.5193 10.12 15.3197C10.12 15.12 10.1993 14.9285 10.3404 14.7873C10.4817 14.6462 10.6732 14.5669 10.8728 14.5669C11.0725 14.5669 11.264 14.6462 11.4053 14.7873L12.8938 16.2759L15.8036 13.3661C15.9448 13.225 16.1363 13.1457 16.336 13.1457C16.5356 13.1457 16.7271 13.225 16.8683 13.3661C17.0095 13.5074 17.0888 13.6989 17.0888 13.8985C17.0888 14.0982 17.0095 14.2897 16.8683 14.431L13.4263 17.873C13.3563 17.943 13.2733 17.9984 13.182 18.0363C13.0906 18.0741 12.9927 18.0936 12.8938 18.0936C12.795 18.0936 12.697 18.0741 12.6057 18.0363C12.5143 17.9984 12.4313 17.943 12.3614 17.873L10.3404 15.8521ZM7.2929 26.1545H18.1826C18.5982 26.1545 18.9355 25.8171 18.9355 25.4016C18.9355 24.986 18.5982 24.6487 18.1826 24.6487H7.2929C6.87737 24.6487 6.53995 24.986 6.53995 25.4016C6.53995 25.8171 6.87737 26.1545 7.2929 26.1545ZM7.2929 29.169H19.916C20.3315 29.169 20.6689 28.8316 20.6689 28.416C20.6689 28.0005 20.3315 27.6631 19.916 27.6631H7.2929C6.87737 27.6631 6.53995 28.0005 6.53995 28.416C6.53995 28.8316 6.87737 29.169 7.2929 29.169ZM1.41177 7.26438V3.16339C1.41177 2.20029 2.20019 1.41187 3.1633 1.41187H39.8838C40.8469 1.41187 41.633 2.20029 41.633 3.16339V7.26438H1.41177ZM10.0983 5.55859C10.6615 5.55859 11.1189 5.10118 11.1189 4.53798C11.1189 3.97478 10.6615 3.51511 10.0983 3.51511C9.53506 3.51511 9.07539 3.97478 9.07539 4.53798C9.07539 5.10118 9.53506 5.55859 10.0983 5.55859ZM6.17224 5.55859C6.73534 5.55859 7.19511 5.10118 7.19511 4.53798C7.19511 3.97478 6.73534 3.51511 6.17224 3.51511C5.60904 3.51511 5.14937 3.97478 5.14937 4.53798C5.14937 5.10118 5.60904 5.55859 6.17224 5.55859ZM14.022 5.55859C14.5851 5.55859 15.0449 5.10118 15.0449 4.53798C15.0449 3.97478 14.5851 3.51511 14.022 3.51511C13.4588 3.51511 12.9992 3.97478 12.9992 4.53798C12.9992 5.10118 13.4588 5.55859 14.022 5.55859ZM36.3242 23.0813C37.4556 23.3501 38.5368 23.7981 39.5267 24.4084L41.6081 23.4829L44.0598 25.9346L43.1378 28.016C43.7487 29.0069 44.1968 30.0893 44.4649 31.222L46.5882 32.0392V35.5071L44.4649 36.3243C44.196 37.4558 43.7455 38.535 43.1378 39.5268L44.0598 41.6082L41.6081 44.0599L39.5267 43.1379C38.5384 43.7491 37.4557 44.1961 36.3242 44.465L35.507 46.5883H32.0391L31.2219 44.465C30.0869 44.1961 29.0077 43.7456 28.0159 43.1379L25.9345 44.0599L23.4828 41.6082L24.4083 39.5268C23.7972 38.5385 23.3501 37.4558 23.0777 36.3243L20.9544 35.5071V32.0392L23.0777 31.222C23.3486 30.0896 23.7977 29.0075 24.4083 28.016L23.4828 25.9346L25.9345 23.4829L28.0159 24.4084C29.0058 23.7981 30.087 23.3501 31.2184 23.0813L32.0391 20.9545H35.507L36.3242 23.0813ZM33.771 26.7614C29.8979 26.7614 26.7613 29.898 26.7613 33.7711C26.7613 37.6443 29.8979 40.785 33.771 40.785C37.6442 40.785 40.7849 37.6443 40.7849 33.7711C40.7849 29.898 37.6442 26.7614 33.771 26.7614ZM31.4006 35.5144C31.6944 35.8082 31.6944 36.2854 31.4006 36.5792C31.1067 36.873 30.6296 36.873 30.3357 36.5792L28.0621 34.3055C27.9922 34.2356 27.9367 34.1526 27.8989 34.0613C27.861 33.9699 27.8415 33.872 27.8415 33.7731C27.8415 33.6743 27.861 33.5764 27.8989 33.485C27.9367 33.3937 27.9922 33.3107 28.0621 33.2408L30.3357 30.9672C30.477 30.826 30.6685 30.7467 30.8681 30.7467C31.0678 30.7467 31.2593 30.826 31.4006 30.9672C31.5417 31.1084 31.621 31.2999 31.621 31.4995C31.621 31.6992 31.5417 31.8907 31.4006 32.0319L29.6593 33.7732L31.4006 35.5144ZM37.2104 36.5792C36.9165 36.873 36.4394 36.873 36.1456 36.5792C35.8518 36.2854 35.8518 35.8082 36.1456 35.5144L37.8868 33.7732L36.1456 32.0319C36.0045 31.8907 35.9252 31.6992 35.9252 31.4995C35.9252 31.2999 36.0045 31.1084 36.1456 30.9672C36.2868 30.826 36.4783 30.7467 36.678 30.7467C36.8776 30.7467 37.0691 30.826 37.2104 30.9672L39.4841 33.2408C39.6252 33.382 39.7045 33.5735 39.7045 33.7731C39.7045 33.9728 39.6252 34.1643 39.4841 34.3055L37.2104 36.5792ZM34.4613 29.6262C34.5261 29.4373 34.6633 29.2819 34.8427 29.1942C35.022 29.1064 35.2289 29.0935 35.4178 29.1582C35.6066 29.2231 35.762 29.3603 35.8497 29.5396C35.9374 29.7189 35.9504 29.9258 35.8857 30.1146L33.2921 37.6777C33.2272 37.8665 33.09 38.0219 32.9107 38.1096C32.7313 38.1974 32.5244 38.2103 32.3355 38.1456C32.1467 38.0808 31.9913 37.9436 31.9036 37.7643C31.8158 37.5849 31.8029 37.3781 31.8676 37.1892L34.4613 29.6262Z" fill="black"/>
</svg>
