<svg width="48" height="48" viewBox="0 0 48 48" fill="none" xmlns="http://www.w3.org/2000/svg">
<path d="M1.5 12V27.75H9.195C8.625 27.1875 8.25 26.445 8.25 25.5C8.19525 21.7372 13.1123 21.9105 15 23.9025V8.25H5.25C3.18 8.25 1.5 9.93 1.5 12ZM42.75 8.25H16.5V23.9025C18.39 21.9105 23.304 21.738 23.25 25.5C23.25 26.445 22.875 27.1875 22.305 27.75H46.5V12C46.5 9.93 44.82 8.25 42.75 8.25ZM39.75 20.25H30.75C29.7675 20.232 29.763 18.7688 30.75 18.75H39.75C40.7325 18.768 40.7378 20.2312 39.75 20.25ZM39.75 15H28.5C27.5182 14.982 27.5123 13.5195 28.5 13.5H39.75C40.7318 13.518 40.7378 14.9805 39.75 15ZM11.25 33.75C10.6042 33.7725 10.2397 32.9153 10.7175 32.4675L13.935 29.25H1.5V36C1.5 38.07 3.18 39.75 5.25 39.75H15V30.315L11.7825 33.5325C11.6325 33.675 11.445 33.75 11.25 33.75ZM17.565 29.25L20.7825 32.4675C21.075 32.76 21.075 33.24 20.7825 33.5325C20.64 33.6714 20.449 33.7491 20.25 33.7491C20.051 33.7491 19.86 33.6714 19.7175 33.5325L16.5 30.315V39.75H42.75C44.82 39.75 46.5 38.07 46.5 36V29.25H45H17.565Z" fill="black"/>
<path d="M11.25 24C10.8 24 9.75 24.1425 9.75 25.5C9.75 27.2025 12.2775 27.75 13.5 27.75H15C15 25.4025 13.5975 24 11.25 24ZM21.75 25.5C21.75 24.1425 20.7 24 20.25 24C17.9025 24 16.5 25.4025 16.5 27.75H18C19.2225 27.75 21.75 27.2025 21.75 25.5Z" fill="black"/>
</svg>
